#!OML:ASF E:/inclinewalkrobotboard/Project1/Captureday1/Session1/subject1.ASF
:FULLY-SPECIFIED
:DEGREES
388
root 0 0 0 -0.3794252029393067 -2.04122538200283 -3.898269243766343
lowerback 16.60133248365742 1.0802556984758367 -0.13502919650653977
upperback 0.6014576150443166 1.4119527651918675 0.31513886048265116
thorax -8.730943377183404 0.6671682858615214 0.04573906255128957
lowerneck -7.489171567988424 -3.2446786605305253 1.381155929648136
upperneck -6.571829634902386 -4.196727425202634 1.664330139861284
head -0.9219424764454853 -2.1861768321125705 0.21373062965011713
rclavicle -3.8091460925497123E-16 2.0998812328720364E-17
rhumerus 12.136328456623318 0.6053381201106358 -39.37651099764669
rradius 118.99905655555543
rwrist -30.89903473296885
rhand -11.633710788906061 -36.837042882676485
rfingers 7.125019999999965
rthumb 14.447088031831559 -66.24418281074632
lclavicle -3.7005533570927326E-16 -4.3639847061638897E-16
lhumerus -43.671301452010155 -0.3726187220349706 83.2031412332121
lradius 45.71780036048839
lwrist 1.764508110218062
lhand -15.216617134395001 -13.366870935875411
lfingers 7.125019999999942
lthumb 10.907007482566264 15.81713122845481
rfemur -2.645987647180122 0.982952342891023 5.2876509173801605
rtibia 7.924852714149697
rfoot -1.4889980409468486 -1.2887189383697133
rtoes 0.7568640575505527
lfemur -6.453319970338578 -3.613109368240884 -12.106042215935096
ltibia 27.284218241786245
lfoot -19.506027845313476 8.177792976659966
ltoes -43.99642917786284
389
root 0 0 0 -0.379372210673909 -2.0412946264311373 -3.898396869000084
lowerback 16.601917843381482 1.080147979765525 -0.13510727019217006
upperback 0.6009210630264613 1.4117936653491403 0.3150433780865146
thorax -8.7318074410994 0.6670821468260578 0.04567007546628876
lowerneck -7.489380623364172 -3.244579908077889 1.381643848818594
upperneck -6.57620875374338 -4.196520593724795 1.6638885688501814
head -0.9233669126642763 -2.1861351834875986 0.2135745524742093
rclavicle -3.8091319034526413E-16 2.1025362260016152E-17
rhumerus 12.136493669760519 0.6061319236625771 -39.376134561412
rradius 119.00057930354038
rwrist -30.899715391307204
rhand -11.633361704308701 -36.83898673018744
rfingers 7.125019999999965
rthumb 14.447417647425892 -66.24606459525778
lclavicle -3.6980284034827794E-16 -4.362139952179118E-16
lhumerus -43.67353501679811 -0.3725051411736099 83.20349278243664
lradius 45.72082049926607
lwrist 1.7632914827066064
lhand -15.214121419846233 -13.374755084149998
lfingers 7.125019999999943
lthumb 10.909383120131231 15.809555477807606
rfemur -2.6450988126324644 0.9826084479126664 5.285843693628868
rtibia 7.922206834811389
rfoot -1.4884749971641504 -1.2882691382090923
rtoes 0.7565981777676825
lfemur -6.4529480108324835 -3.6133671236244913 -12.10526964225651
ltibia 27.283482963091323
lfoot -19.507459433764186 8.17903332636768
ltoes -44.000560821912
390
root 0 0 0 -0.3793188380116651 -2.041364296321588 -3.89852578690018
lowerback 16.602506068739473 1.080040110440896 -0.1351854016048203
upperback 0.6003804330756952 1.411634335104891 0.314947068610159
thorax -8.73267716257618 0.666995824925076 0.045600073108534644
lowerneck -7.489591702595858 -3.2444809687954064 1.3821344060623963
upperneck -6.580614597774748 -4.19631332031331 1.663445180103102
head -0.9247999385043819 -2.1860935678227884 0.2134177898272272
rclavicle -3.8091159974648256E-16 2.105212118197473E-17
rhumerus 12.136657182736911 0.606933390446935 -39.37575714454728
rradius 119.00211224880118
rwrist -30.900400819319575
rhand -11.633009048648006 -36.840948488556556
rfingers 7.1250199999999655
rthumb 14.44775063632831 -66.24796369878032
lclavicle -3.6954817546961343E-16 -4.360278967345721E-16
lhumerus -43.675787872227474 -0.37239056606023413 83.20384736304815
lradius 45.72386663129394
lwrist 1.762064335814927
lhand -15.211604222372339 -13.382707237060353
lfingers 7.125019999999943
lthumb 10.911779237390295 15.801914398742923
rfemur -2.644202177494801 0.9822615125503444 5.284020527792842
rtibia 7.919537681155161
rfoot -1.487947323693998 -1.2878153818420524
rtoes 0.756329940905268
lfemur -6.4525727121410705 -3.6136271644086984 -12.104490290588652
ltibia 27.282741174621457
lfoot -19.508903636165698 8.180284587295791
ltoes -44.00472879650661
391
root 0 0 0 -0.3792650749256309 -2.0414344035516514 -3.8986560316026058
lowerback 16.603097247930307 1.0799320844203777 -0.1352635945232018
upperback 0.5998356136735844 1.4114747652592574 0.3148499094031587
thorax -8.733552701984673 0.6669093137279875 0.045529029022210565
lowerneck -7.489804860250959 -3.2443818366662938 1.3826276770634065
upperneck -6.585047932185741 -4.196105590111172 1.662999918763906
head -0.9262418003221597 -2.1860519854863925 0.21326032128525624
rclavicle -3.809098342077084E-16 2.1079094385313967E-17
rhumerus 12.136818969348795 0.6077427090034835 -39.37537871037593
rradius 119.00365566427882
rwrist -30.901091142824754
rhand -11.632652734857615 -36.84292860374245
rfingers 7.1250199999999655
rthumb 14.448087080778699 -66.24988055257562
lclavicle -3.692912833835593E-16 -4.358401327452769E-16
lhumerus -43.67806052281339 -0.3722749694455597 83.20420505464489
lradius 45.72693943426076
lwrist 1.7608263930586707
lhand -15.209064980105264 -13.390729172537112
lfingers 7.125019999999943
lthumb 10.914196370119253 15.794206282842397
rfemur -2.643297538841396 0.9819114578074983 5.282181005549669
rtibia 7.916844648074452
rfoot -1.4874149002887687 -1.2873575663916066
rtoes 0.7560592857644521
lfemur -6.452193987383548 -3.6138895502432318 -12.103703983882891
ltibia 27.281992706543566
lfoot -19.510360781798987 8.181547044358096
ltoes -44.00893405015833
392
root 0 0 0 -0.3792109111627001 -2.041504960245396 -3.8987876382415294
lowerback 16.603691470700788 1.0798238957935502 -0.13534185257531828
upperback 0.5992864905248072 1.411314946855694 0.31475187719558073
thorax -8.734434223316658 0.66682260687095 0.0454569158532232
lowerneck -7.490020152486883 -3.24428250581415 1.3831237388785262
upperneck -6.589509538379303 -4.195897388450591 1.662552729338076
head -0.9276927496324312 -2.186010437036207 0.21310212615276447
rclavicle -3.809078903454473E-16 2.1106287286100947E-17
rhumerus 12.136979001644946 0.6085600729332175 -39.37499922207859
rradius 119.00520982882873
rwrist -30.90178649044663
rhand -11.632292673466736 -36.84492753343093
rfingers 7.1250199999999655
rthumb 14.448427065288563 -66.2518155992382
lclavicle -3.6903210487289106E-16 -4.3565065970678215E-16
lhumerus -43.68035348628695 -0.37215832333466214 83.20456593891096
lradius 45.730039603520716
lwrist 1.75957737068172
lhand -15.206503116494792 -13.398822715017024
lfingers 7.125019999999943
lthumb 10.916635068110683 15.786429376994867
rfemur -2.6423846883954756 0.981558202596253 5.280324701622108
rtibia 7.914127114488728
rfoot -1.4868776035158522 -1.286895586264834
rtoes 0.7557861495240661
lfemur -6.4518117473502805 -3.614154342367698 -12.102910540401743
ltibia 27.28123738450347
lfoot -19.511831208686267 8.182820990025299
ltoes -44.01317755652616
393
root 0 0 0 -0.3791563362357183 -2.041575978782341 -3.8989206429890855
lowerback 16.60428882840282 1.0797155388315232 -0.13542017923044491
upperback 0.5987329464504897 1.4111548711958652 0.3146529480732092
thorax -8.735321894322563 0.6667356980620615 0.04538370531175018
lowerneck -7.490237637115562 -3.244182970512581 1.383622669984728
upperneck -6.594000214576798 -4.195688700867456 1.6621035556760861
head -0.9291530433001025 -2.185968923229509 0.21294318345474256
rclavicle -3.8090576463905037E-16 2.1133705430067672E-17
rhumerus 12.13713724986085 0.6093856810790506 -39.37461864269082
rradius 119.00677502742803
rwrist -30.902486993712472
rhand -11.631928772513868 -36.84694574745453
rfingers 7.1250199999999655
rthumb 14.448770676722539 -66.25376929310099
lclavicle -3.6877057913437767E-16 -4.354594329115077E-16
lhumerus -43.68266729409116 -0.37204059895737196 83.20493009969479
lradius 45.73316785275311
lwrist 1.7583169773817624
lhand -15.203918039758207 -13.406989737186231
lfingers 7.125019999999943
lthumb 10.91909589569969 15.778581881720486
rfemur -2.6414634123288208 0.9812016636590364 5.278451179367657
rtibia 7.9113844427450974
rfoot -1.486335306638289 -1.2864293330511423
rtoes 0.7555104676798283
lfemur -6.451425900414816 -3.6144216036716608 -12.102109773542066
ltibia 27.280475029455204
lfoot -19.513315263920745 8.184106724610052
ltoes -44.017460315364666
